<svg version="1.1" id="Layer_1" xmlns="http://www.w3.org/2000/svg" xmlns:xlink="http://www.w3.org/1999/xlink" x="0px" y="0px" viewBox="0 0 740.6 269.2" style="enable-background:new 0 0 740.6 269.2;" xml:space="preserve" height="100px" width="100px" transform="rotate(0) scale(1, 1)">
<style type="text/css">.st0 { fill: #bdbdbd; }</style>
<path class="st0" d="M137.9,263.7c-26.7-5.8-49.4-18.3-68.3-37.5c-14.6-14.8-25.1-32.1-31.1-52.1c-0.7-2.4-2-3.3-4.3-3.7&#10;&#9;c-7.7-1.3-15-3.8-21.4-8.5C2.1,154-0.3,142,6.5,130.5c2.7-4.5,6.1-8.4,10.1-11.7c3.1-2.6,5.6-2.8,7.4-0.8c1.9,2,1.8,4.9-0.6,7.8&#10;&#9;c-3,3.6-5.3,7.4-6.1,12.1c-1.1,6.5,1.2,11.5,7.1,14.7c5.3,2.9,11,3.9,16.9,4.4c13.1,1.3,26.2,0.9,39.4,0.6c3.9-0.1,4.3-0.5,4-4.4&#10;&#9;c-0.2-2.8-0.6-5.6-0.6-8.3c0-2.5-0.8-3.3-3.3-3.2c-10.6,0.8-21.3,0.9-31.9,0.6c-4.1-0.1-8.2-0.4-12.2-0.5c-2.4-0.1-3.4-1.2-3.4-3.5&#10;&#9;c-0.4-28.1,7.1-53.8,23-77.1C65.7,47.2,77.2,35,91.5,25.5c17.3-11.5,36.3-19,57-21.4C193.8-1.2,232,13,263.4,45.8&#10;&#9;c7.5,7.8,13.9,16.4,19.8,25.4c2.9,4.4,2.5,6.3-2.1,8.8c-22,12.1-45.2,21.6-68.8,30.2c-10.9,3.9-21.8,7.5-32.9,10.8&#10;&#9;c-1.1,0.3-2.2,0.9-3.4,1.4c1.2,4.1,2.3,8.1,3.6,12.1c0.7,2.1,2.3,1.8,3.9,1.3c10.6-3.2,21.1-6.5,31.4-10.4&#10;&#9;c17.2-6.5,34.4-13.2,51-21.1c8.8-4.2,17.5-8.6,25.5-14.3c3.4-2.4,6.5-5.2,8.3-9.2c2.4-5.1,1.7-10.1-2.3-14.3&#10;&#9;c-2.3-2.4-5.1-4.2-7.9-5.8c-2.7-1.5-3.9-4-3-6.5c1-2.7,3.3-3.2,5.9-3c12.1,1.1,23.4,14.1,22.4,26.1c-0.6,6.7-4.1,12.2-8.5,17.1&#10;&#9;c-2.5,2.7-5.4,5.1-8.3,7.2c-1.3,0.9-1.8,2-1.6,3.5c0.4,4,0.8,8.1,1.2,12.1c0.4,3.2-1,5.5-3.4,7.4c-9.4,7.6-19.5,14.1-29.8,20.3&#10;&#9;c-12.3,7.4-25,14-37.9,20.2c-1.5,0.7-3.8,1.1-3.8,3.3c0,2.4,1.7,3.9,4,4.7c3.3,1.1,4.8,3.4,5.1,6.7c0.2,3.1-1.4,5.3-4,6.9&#10;&#9;c-7.7,4.8-15.4,9.6-23.1,14.3c-2.1,1.3-3.8,2.8-3.9,5.6c-0.1,4.3,3.8,6.9,7.5,4.7c12.4-7.4,24.7-15,36.2-23.7&#10;&#9;c5.2-3.9,10.2-7.9,15.3-12c2.9-2.3,4.7-5.1,4.1-9c-0.4-2.5,1.5-3.7,3.2-5c6.4-4.9,12.9-9.6,19.4-14.5c6.3-4.8,12.4-9.7,17.8-15.5&#10;&#9;c3.5-3.7,6.5-7.7,8.2-12.7c1.5-4.4,1-8.4-1.5-12.2c-0.6-0.9-1.2-1.8-1.7-2.8c-1.4-3.1,0.3-6.4,3.8-6.9c3.1-0.5,5.4,0.9,7.5,2.9&#10;&#9;c6.1,6.3,7,13.8,4.9,21.9c-2.2,8.4-7.8,14.7-13.8,20.6c-4.2,4.1-8.7,7.8-13.5,11.3c-1.6,1.1-2.3,2.6-2.7,4.4&#10;&#9;c-7.8,39-28.8,69-62.7,89.7c-16.4,10-34.6,15.5-53.8,17.5C165.1,267.1,151.6,266.6,137.9,263.7 M195,159.7c4.4-2.1,8.8-4.2,13.2-6.2&#10;&#9;c2.2-1,2.9-2.7,2.1-4.9c-0.9-2.3-2.7-1-4.1-0.5c-8.5,2.7-17.1,5.4-25.6,8.1c-5.6,1.7-8.4,0.4-10.5-5.2c-0.9-2.3-1.5-4.8-2-7.2&#10;&#9;c-2.7-11.2-6.2-21.9-13.7-31.1c-10.2-12.5-22.5-22.4-36.7-30.1c-2.5-1.3-3.6-1.3-5,1.3c-12,23.3-17.3,47.7-13.7,73.8&#10;&#9;c0.5,3.6,1.9,3.6,4.5,3.3c3.3-0.3,6.5-0.7,9.8-1.1c9.1-1,18.2-2.1,27-4.4c7.9-2.1,11.6-8.2,9.7-16.2c-1.4-6.1-6.7-10-12.9-8.5&#10;&#9;c-5.3,1.3-10.5,3.1-15.7,4.6c-4.3,1.2-7.6-1.7-7.2-6.1c0.2-3.1,1.8-5.2,4.6-6.4c4.9-2.1,10-3.5,15.1-4.7c12.4-3,23.9,3.1,28.1,14.8&#10;&#9;c5.1,14.2-0.7,31-16.8,36.8c-7.7,2.8-15.8,3.9-23.8,5.3c-1.2,0.2-2.4,0.1-2.2,2c0.4,4.3,2.6,6.1,6.9,5.5c0.5-0.1,1-0.1,1.5-0.2&#10;&#9;C150.6,177.3,172.9,169.3,195,159.7 M210,27.4c-14.8-6.2-30.2-9-46.3-8.6c-1.2,0-2.3,0.2-3.4,0.8c-6.6,4.2-12.2,9.6-17.2,15.5&#10;&#9;c-0.3,0.4-0.7,0.8-0.2,1.7c25.9,9.2,48.9,23.5,67.5,44.7c0.4-0.7,0.7-1.1,0.9-1.6c6-13.4,7.8-27.5,5.6-42&#10;&#9;C216.3,33.7,216.4,28.7,210,27.4 M129.7,54.9c-2.2,3.4-4.4,6.9-6.5,10.3c-1.8,3-1.7,3.3,1.5,4.8c7,3.3,13.5,7.3,19.6,12&#10;&#9;c9.6,7.4,18.1,15.9,25.2,25.7c0.8,1.1,1.4,2.4,3.3,1.8c9.6-3.2,19.2-6.5,28.6-10.4c2-0.8,2-2.3,1.1-3.9c-0.5-0.9-1.2-1.6-1.9-2.3&#10;&#9;c-16.3-19.1-36.5-32.8-59.9-41.6C132.9,48.4,135.1,47.6,129.7,54.9 M87.4,109.5c2.8-11.4,7.1-22.2,12.4-32.5c-1.3-1-2.4-1.2-3.5-1.4&#10;&#9;c-10.1-1.6-20.2-0.7-30.3,0.7c-1.3,0.2-2,1.1-2.6,2.2c-7.4,13.8-12.7,28.2-14.1,43.9c-0.2,2.4,0.4,3,2.6,2.9&#10;&#9;c9.6-0.1,19.3-0.1,28.9,0c2.5,0,3.2-1,3.6-3.2C85.2,118.1,86.3,114,87.4,109.5 M227,79.8c-1.4,3.5-2.7,6.9-4.2,10.6&#10;&#9;c2.1,0.4,3.5-0.6,4.9-1.2c10.9-4.9,21.7-9.9,32.2-15.7c2.4-1.4,2.9-2.4,1.2-4.7c-5.4-7.4-11.3-14.4-18.2-20.5&#10;&#9;c-3.5-3.1-6.8-6.6-11.8-9C232.8,53.3,231.6,66.5,227,79.8 M95.7,41.3c-7,5.5-13.6,11.5-19.3,18.3c0.7,0.8,1.3,0.7,1.9,0.7&#10;&#9;c9.1-0.3,18,0.3,26.8,2.8c1.7,0.5,2.8-0.3,3.5-1.8c2.2-4.3,4.6-8.3,7.3-12.3c1-1.5,2.4-2.9,2.9-5c-6.3-2.1-12.6-2.9-19-3.8&#10;&#9;C98.4,40,97.1,39.8,95.7,41.3 M205.4,175c-5.5,2.5-11,4.9-16.6,7.4c-1.3,0.6-2.5,1.2-3.6,2.1c-2.5,2-3,4.5-1.5,7.1&#10;&#9;c1.6,2.9,3.9,3.8,7,2.5c5.4-2.4,10.8-5,16.2-7.5c0.9-0.4,1.8-1,2.5-1.6c1.8-1.8,3-3.9,2-6.4C210.5,176,208.6,174.7,205.4,175&#10;&#9; M131.7,209.3c-0.4,2.8,0.8,4.8,3.1,6.2c1.9,1.1,3.8,1,5.6-0.3c2.1-1.4,3.1-3.5,2.5-5.9c-0.7-2.6-2.4-4.4-5.2-4.7&#10;&#9;C134.6,204.4,132.9,206.3,131.7,209.3 M160.4,226.8c-0.7,0.2-1.4,0.3-2,0.6c-2.1,1-3.1,2.8-3,5.1c0.1,2.5,1.7,4,3.7,5&#10;&#9;c1.9,0.9,3.7,0,5.2-1.3c1.6-1.4,2.5-3.3,1.9-5.3C165.4,228.3,163.5,226.9,160.4,226.8 M169.9,198.6c-1-2.7-3.1-4.3-5.9-3.8&#10;&#9;c-2.4,0.4-4.1,2-4.4,4.6c-0.4,3.4,1.8,6,4.9,6.1C168.1,205.6,170,203.3,169.9,198.6 M79.6,188.3c3.1,2.1,5.8,1.7,7.3-1&#10;&#9;c1.4-2.4,0.4-5.8-2.2-7.2c-2.3-1.2-5.2,0.1-6.5,2.9C77.2,185,78.4,186.4,79.6,188.3 M188.3,221.7c1.4-3.2,0.6-5.5-2-6.2&#10;&#9;c-2.3-0.6-4.1,0.2-5.2,2.3c-1.1,2.1,0,3.8,1.4,4.9C184.3,224.2,186.3,223.8,188.3,221.7 M119.9,27.7c-0.6,0.4-1.6,0.4-1.6,1.4&#10;&#9;c7.7,3.1,11.6,1.7,13.8-5.3C127.8,24.2,124.1,26,119.9,27.7 M104.7,216.9c-0.7,3.1,0.6,5.4,3.2,5.8c2.4,0.4,4.5-1.4,4.6-3.8&#10;&#9;c0.1-2-0.9-3.4-2.6-4.3C107.7,213.5,106.2,215,104.7,216.9 M140.6,243.1c-1.2-3.2-3.7-4.2-5.8-2.4c-1.2,1.1-2,2.5-1.2,4.2&#10;&#9;c0.7,1.4,1.7,2.5,3.5,2.3C139.3,247,140.4,245.7,140.6,243.1 M102,184.3c-2,0.7-2.5,2.2-2.1,4c0.3,1.5,1.4,2.4,2.9,2.7&#10;&#9;c1.6,0.3,2.6-0.7,3.4-2C107.3,186.8,105.6,184.6,102,184.3 M260.1,199.7c1-1.5,2-3,3-4.5c-0.2-0.2-0.4-0.4-0.6-0.6&#10;&#9;c-2.6,2-5.3,4-7.8,6.1c-1,0.8-1.1,1.9,0,2.8c0.9,0.8,1.7,0.8,2.5-0.2C258.1,202.2,258.9,201.1,260.1,199.7 M232.7,141.2&#10;&#9;c2.3-1.3,4.7-2.3,6.5-4.5c-3.9,1.1-7.6,2.4-11.3,3.9c-1.2,0.5-1,1.8-0.4,3C229.3,143.3,230.8,142.3,232.7,141.2z"/>
<path class="st0" d="M376,219.7c-5.2-7.3-10-14.1-15.5-22.1c-2.1,9.9-0.7,18.6-1.2,27.1c-0.6,8.5-3.9,12.4-10.9,12.8&#10;&#9;c-9.1,0.5-13.4-3.1-13.5-12.3c-0.1-22.9-0.1-45.9,0.3-68.8c0.1-6.2,0.5-13,8.7-14.9c8.2-1.9,12.4,0,17.1,8.8&#10;&#9;c5.5,10.5,11.7,20.6,18.1,30.6c3.4,5.4,6.7,5.4,9.9,0c6.2-10.4,12.3-20.9,18.4-31.3c2.2-3.7,4.5-7.1,9.1-8.2&#10;&#9;c9.7-2.3,16.7,2.1,16.9,12.2c0.5,24.2,0.3,48.5-0.1,72.7c-0.2,8.3-4.7,11.7-12.1,11.3c-9-0.5-12-3.7-12.1-12.8&#10;&#9;c-0.1-8.9,0-17.8,0-28.4c-6.9,6.4-9.2,13.8-13.4,19.8C389.7,224.7,385,225.7,376,219.7z"/>
<path class="st0" d="M557.1,199c0,9.5,0.2,18.5,0,27.5c-0.2,8.1-4.3,12.2-11.5,11.9c-6.8-0.2-11.5-5-11.6-12.3&#10;&#9;c-0.1-24.3,0-48.5,0-72.8c0-5.5,1.6-10.1,7.5-11.5c5.7-1.4,11.1-0.8,14.7,4.7c6.8,10.4,13.5,20.8,20.3,31.2c1.5,2.3,2.5,5.2,6.6,6.8&#10;&#9;c0-10.7-0.2-20.9,0.1-31c0.2-9.1,5-13.1,13.7-12.1c5.8,0.7,9.4,3.8,9.4,9.8c0.1,25.8,0,51.7,0.1,77.6c0,4.3-1.9,7.4-5.9,8.3&#10;&#9;c-5.4,1.2-11.3,1.9-15.2-3.5c-5.2-7.3-10.1-14.8-15.2-22.2c-3.8-5.5-7-11.5-12.5-16.8C557.3,196.4,557.2,197.4,557.1,199z"/>
<path class="st0" d="M610.6,117.5c-1.6,10.9-4.5,14.3-11.9,14.4c-7.3,0.2-12.3-4-12.4-11.3c-0.2-24.2-0.1-48.4,0-72.7&#10;&#9;c0-7.5,3.9-11.7,11.6-12c11.3-0.4,22.7-1,33.9,1.1c11.2,2.1,18.9,8.9,22.3,19.9c3.7,11.8,3.2,23.3-6,32.2c-5.3,5.1-5,8.8-1.3,14&#10;&#9;c2.4,3.4,4.6,7.1,6.6,10.7c3,5.3,6.8,11-0.2,16c-5.4,3.8-15.9,1.5-19.7-4.1c-4-5.9-7.6-12-11.6-17.9c-1.9-2.8-3.1-7.6-8-6.1&#10;&#9;c-4.7,1.5-3.2,6-3.3,9.5C610.4,113.1,610.6,115,610.6,117.5 M629.3,76c4.1-4.5,4-9.1-0.3-13.2c-4.8-4.4-11.4-4.7-16.2-1.9&#10;&#9;c-4.3,2.5-3.8,8.9-2.6,13.8c1.6,6.8,7.3,4.4,11.7,4.6C624.3,79.5,626.4,78.2,629.3,76z"/>
<path class="st0" d="M561.1,45.5c16.6,19.5,18.1,51.6,3.7,70.9c-17.2,23.1-52.9,19.7-65.4-6.4c-7.5-15.7-7.9-32.2-2.4-48.4&#10;&#9;C506.4,34.2,537.1,26.5,561.1,45.5 M521.6,99.8c8.1,10.8,19.4,11.2,25.1,0c5.5-10.8,5.3-22.3-0.3-33.3c-2.8-5.5-8.1-7.9-13.8-7.5&#10;&#9;c-5.8,0.4-9.9,4.1-12.2,9.8C516.3,79,516.9,88.9,521.6,99.8z"/>
<path class="st0" d="M447.9,104.4c-6.2-0.4-8.4,2.2-8,7.5c0.2,3.1,0.2,6.4-0.2,9.5c-0.9,6.6-4.5,10.2-11.7,10.1&#10;&#9;c-6.9-0.1-11.1-2.7-11.8-9.8c-0.3-3.4-0.6-6.8-0.6-10.2c0-20,0-40,0-60c0-11.6,2.7-15,13.9-15.6c10.5-0.6,21.1-0.6,31.5,1.2&#10;&#9;c16.8,2.9,26.3,18,24.9,39.1c-1,14.7-14.2,27.2-30.2,28.2C453.4,104.5,451,104.4,447.9,104.4 M444.3,60.2&#10;&#9;c-3.8,2.6-6.5,13.3-3.9,18.1c3.2,5.6,9,3,13.5,2.4c4.8-0.6,8.9-3.6,8.8-9.4c-0.2-6-3.4-9.9-9.2-11C450.9,59.7,448.2,60.1,444.3,60.2&#10;&#9;z"/>
<path class="st0" d="M442.3,228.9c9.7-26.5,19.3-52.4,28.9-78.3c2.5-6.9,7.2-9.5,14.6-9.4c7.1,0.1,9.4,4.4,11.4,9.9&#10;&#9;c8.8,23.9,17.8,47.8,26.6,71.8c1.5,4.2,3.1,8.8-1.2,12.4c-4.5,3.7-9.6,3.7-14.9,1.8c-3.6-1.3-5.1-4.4-6.5-7.5&#10;&#9;c-5.5-11.4-5.4-11.4-18.3-10.1c-1.3,0.1-2.6,0.4-3.9,0.2c-5.6-0.5-8.4,2-10.5,7.2c-4.1,9.9-8,12-16.7,10.8&#10;&#9;C446.8,236.9,443.1,234.9,442.3,228.9 M481.1,189.6c-0.5,2.1-2.7,4.6,0,6.3c2,1.3,4.5,1.1,6.2-1.2&#10;&#9;C485.7,186.9,485.7,186.9,481.1,189.6z"/>
<path class="st0" d="M677.8,232.7c-5.4,6.9-11.9,6.7-18,3.2c-6.2-3.5-4.3-9.5-2.4-14.8c8.3-23,16.8-45.9,25.1-69&#10;&#9;c2.4-6.8,5.9-11.1,14.1-11.1c8.2,0,10.6,4.9,13,11.2c8.3,22.7,16.9,45.3,25.3,68c2.2,6,5.1,12.5-3.1,16.2&#10;&#9;c-7.2,3.3-14.3,0.3-18.5-7.2c-2-3.6-2.4-9.4-6.9-9.9c-7-0.8-14.3-0.6-21.1,1C680.5,221.7,681,228.5,677.8,232.7 M693.2,190.6&#10;&#9;c-0.8,7.1-0.4,7.4,6.8,4.3c-0.3-3.3-1.7-6.2-4.3-9.2C694.7,187.4,694,188.5,693.2,190.6z"/>
<path class="st0" d="M375.7,131.3c-11.6,0.4-22.4,0.2-32.4-4.9c-5.2-2.7-10.9-5-7.7-13c3.3-8.3,6.8-10.2,16-7.9&#10;&#9;c4.8,1.2,9.7,2.4,14.6,3.4c1.8,0.4,3.8,0.8,5.4,0.3c3.9-1,9.4-0.9,9.9-6.2c0.4-4.9-4.6-5.8-8.2-7.2c-6.6-2.5-13.5-4.5-20-7.2&#10;&#9;c-11.5-4.8-17.4-13.8-17.1-25C336.5,51.4,343,42.4,355,38c13.5-4.9,26.9-3.7,40,1.7c4.2,1.7,8.6,3.6,6.5,9.7&#10;&#9;c-2.7,7.9-8.2,12.8-13.7,11.6c-4.9-1.1-9.6-2.9-14.7-3c-4.6-0.1-10,0.1-11.2,5.2c-1.2,5.3,4.5,6.3,8.2,7.7c5.4,2,11.1,3.3,16.5,5.4&#10;&#9;c14,5.4,19.2,13.6,18.6,28.6c-0.4,11.1-8.3,20.6-20.3,24.5C382.2,130.3,379.3,130.6,375.7,131.3z"/>
<path class="st0" d="M711.6,120.2c-2.6,9.8-6.3,12.5-14.5,11.3c-8.1-1.2-9.8-6.6-9.7-13.7c0.2-16.9-0.1-33.7,0.1-50.6&#10;&#9;c0.1-5.5-1.8-7.9-7.3-7.3c-1.8,0.2-3.7,0.1-5.5,0c-7.3-0.4-12-4.9-12.3-11.8c-0.3-7,3.7-12.1,11.3-12.3c17.9-0.5,35.8-0.4,53.7-0.3&#10;&#9;c6.6,0.1,10,4.1,10.4,10.6c0.4,6.2-1.8,10.9-8.1,12.8c-2.5,0.7-5.2,0.9-7.8,0.9c-10.9,0.3-11.2,0.2-11.1,11.5&#10;&#9;C710.9,87.4,711.4,103.5,711.6,120.2z"/>
<path class="st0" d="M645.1,190.3c-1.5,12-0.6,23.4-0.8,34.7c-0.2,9-3.1,13-10,13.1c-7.8,0.2-12.6-4.1-12.8-12.8&#10;&#9;c-0.3-19.5-0.1-39,0-58.5c0-5.5-0.4-11,0.8-16.5c1.4-6.2,5.1-9,11.1-8.9c5.9,0,10.3,2.4,11.2,8.8&#10;&#9;C646.7,163.2,645.2,176.4,645.1,190.3z"/>
<path class="st0" d="M16.1,189.1c-1.4-2.8-1.5-5.4,0.5-7.7c1.6-1.8,3.7-2.7,6.1-2c2.7,0.8,4.5,2.4,4.7,5.4c0.2,3.1-1.1,5.4-3.9,6.7&#10;&#9;C21,192.7,18.6,191.9,16.1,189.1z"/>
<path class="st0" d="M287.5,216.3c1.5,4.2,0.6,7-2.5,8.6c-2.6,1.3-6.1,0.4-7.7-2c-1.8-2.7-1.3-6.4,1.2-8.3&#10;&#9;C281.5,212.4,284.6,212.9,287.5,216.3z"/>
<path class="st0" d="M309.9,195.6c1.8,2.5,2.5,5,0.6,7.6c-1.6,2.1-3.8,3.2-6.6,2.4c-2.4-0.7-3.9-2.3-4.2-4.9&#10;&#9;c-0.3-2.6,0.3-4.7,2.7-6.1C305,192.9,307.4,193.5,309.9,195.6z"/>
<path class="st0" d="M33.5,79.6c-2.9,2.9-6.2,3.2-8.6,1.1c-2.3-2-2.8-6-1.1-8.4c1.7-2.4,5.4-3.1,8-1.5&#10;&#9;C34.7,72.5,35.4,75.7,33.5,79.6z"/>
<path class="st0" d="M18.5,101.5c-2.1-1.7-2.7-3.6-1.7-5.9c0.8-1.9,2.5-2.9,4.5-2.8c1.9,0.1,3.3,1.2,4,3.1c0.7,1.9,0.2,3.6-1.1,4.9&#10;&#9;C22.6,102.3,20.8,102.6,18.5,101.5z"/>
<path class="st0" d="M35.6,212.8c-2.2,1.5-4.2,1.3-5.7-0.6c-1.3-1.5-1.3-3.3-0.3-5c1-1.9,2.9-2,4.7-1.6&#10;&#9;C37.3,206.3,38,209.7,35.6,212.8z"/>
<path class="st0" d="M248.2,171.3c-0.2,3-3.1,5.5-5.7,5.3c-2.1-0.2-3.7-2.3-3-4.2c0.7-2,2.3-3.2,4.3-3.7&#10;&#9;C245.8,168.3,247.3,169.1,248.2,171.3z"/>
<path class="st0" d="M55.5,45.5c1.2,2.4,0.3,4.1-1.4,5.4c-1.3,1-2.8,1.1-4.2,0.2c-1.8-1.1-2-2.8-1.8-4.7c0.2-1.4,1-2.4,2.4-2.7&#10;&#9;C52.3,43.2,54.2,43.3,55.5,45.5z"/>
<path class="st0" d="M37.3,53.3c-2.4,1-4.4,0.6-5.4-1.7c-0.8-1.7-0.3-3.4,1.3-4.4c1.7-1.2,3.5-0.9,4.8,0.6&#10;&#9;C39.7,49.6,39.3,51.5,37.3,53.3z"/>
<path class="st0" d="M52.1,220.4c-1.1,1.1-2.3,1.2-3.5,0.9c-2-0.5-3.1-1.9-2.9-3.9c0.2-2.2,1.7-3.2,4-3.1c2.1,0.1,3.2,1.4,3.4,3.4&#10;&#9;C53.2,218.6,52.8,219.4,52.1,220.4z"/>
<path class="st0" d="M181.1,35.6c-4.7,2.8-9.4,1.1-10-3.5c-0.5-3.3,0.8-5.9,3.4-6.9c2.6-1,5.8-0.2,7.3,1.8&#10;&#9;C183.7,29.4,183.5,32.7,181.1,35.6z"/>
<path class="st0" d="M67.7,105.7c0.6,3.8-0.3,6.5-2.8,7.7c-2.4,1.1-4.8,1.1-7-0.7c-2.4-2-2.6-4.7-1.8-7.4c0.7-2.4,2.8-3.7,5.2-3.8&#10;&#9;C64.2,101.4,66.5,102.6,67.7,105.7z"/>
<path class="st0" d="M248.4,71.5c-5.3,1.1-8.5-1-8.6-5.4c-0.1-3.4,1.4-5.6,4.1-6.4c3-0.9,6.1,0.4,7.4,2.9c1.5,2.8,0.9,6-1.5,8.1&#10;&#9;C249.5,70.9,249.1,71.1,248.4,71.5z"/>
</svg>